<svg id="Layer_1" data-name="Layer 1" xmlns="http://www.w3.org/2000/svg" width="2092.09" height="217.75" viewBox="0 0 2092.09 217.75">
  <defs>
    <style>
      .cls-1 {
        isolation: isolate;
      }

      .cls-2 {
        fill: #ef0;
      }
    </style>
  </defs>
  <g id="PORTFOLIE-2" class="cls-1">
    <g>
      <path class="cls-2" d="M93.76,144.21q0,35.44-16.43,54.26T29.78,217.3a67.7,67.7,0,0,1-25.72-4.8V175.22A36.91,36.91,0,0,0,27,183q27.19,0,27.19-40.36V37.78H93.76Z"/>
      <path class="cls-2" d="M226.37,217.3q-37.91,0-61.77-24.67t-23.87-64.29q0-41.84,24.24-67.68T229.2,34.82q37.77,0,61.09,24.73t23.32,65.22q0,41.6-24.18,67.06T226.37,217.3ZM228.09,69q-20.93,0-33.22,15.69t-12.31,41.53q0,26.2,12.31,41.46T227.11,183q20.55,0,32.6-14.83T271.77,127q0-27.44-11.69-42.69T228.09,69Z"/>
      <path class="cls-2" d="M521,214.22H480.92L408.19,103.36a161,161,0,0,1-8.85-14.64h-.5q1,9.34,1,28.54v97H362.3V37.78h42.82l70,107.42q4.8,7.26,8.86,14.39h.49q-1-6.15-1-24.24V37.78H521Z"/>
      <path class="cls-2" d="M736,214.22H692.64L680.09,175H617.34l-12.43,39.25H561.84L626.07,37.78H673.2Zm-65-69.76L652,85.15a77.28,77.28,0,0,1-3-15.87h-1A67.46,67.46,0,0,1,645,84.66l-19.19,59.8Z"/>
      <path class="cls-2" d="M769.26,207.46V168.08a75.79,75.79,0,0,0,23.26,13.48,74.84,74.84,0,0,0,25.35,4.49,55.74,55.74,0,0,0,13.1-1.36,30.62,30.62,0,0,0,9.35-3.75,16.34,16.34,0,0,0,5.6-5.66,14.11,14.11,0,0,0,1.85-7.07,15.27,15.27,0,0,0-3-9.23,31.72,31.72,0,0,0-8.06-7.51,83.19,83.19,0,0,0-12.12-6.64q-7-3.21-15.13-6.53-20.67-8.61-30.82-21t-10.16-30q0-13.78,5.54-23.69a47.13,47.13,0,0,1,15.07-16.3,67.72,67.72,0,0,1,22.09-9.41,113.52,113.52,0,0,1,26.58-3,160.68,160.68,0,0,1,24.42,1.66,96,96,0,0,1,19.63,5.11V78.38A59.22,59.22,0,0,0,872.19,73a76.77,76.77,0,0,0-10.77-3.88,84.18,84.18,0,0,0-11-2.28,78.29,78.29,0,0,0-10.4-.73,54.26,54.26,0,0,0-12.3,1.29A31.46,31.46,0,0,0,818.36,71a18,18,0,0,0-5.91,5.6,13.29,13.29,0,0,0-2.09,7.32,13.94,13.94,0,0,0,2.34,7.93,26.62,26.62,0,0,0,6.64,6.65,70.73,70.73,0,0,0,10.46,6.15q6.15,3,13.91,6.22a155.2,155.2,0,0,1,19,9.41,67.5,67.5,0,0,1,14.45,11.26,43.78,43.78,0,0,1,9.23,14.33,50.55,50.55,0,0,1,3.2,18.77q0,14.76-5.6,24.79a45.34,45.34,0,0,1-15.19,16.24,65.7,65.7,0,0,1-22.34,8.92,128.68,128.68,0,0,1-26.88,2.71A149.64,149.64,0,0,1,792,214.84,83.49,83.49,0,0,1,769.26,207.46Z"/>
      <path class="cls-2" d="M1175,214.22h-45.65l-27.44-45.4c-2.06-3.44-4-6.52-5.91-9.23a52,52,0,0,0-5.72-7,22.87,22.87,0,0,0-6-4.43,15.38,15.38,0,0,0-6.83-1.54h-10.71v67.55H1027V37.78h63q64.23,0,64.23,48a49.63,49.63,0,0,1-2.83,17,47.22,47.22,0,0,1-8,14.08,50.39,50.39,0,0,1-12.49,10.83,64.08,64.08,0,0,1-16.3,7.14v.49a25.24,25.24,0,0,1,7.63,4,55.29,55.29,0,0,1,7.14,6.46,90.93,90.93,0,0,1,6.58,7.94q3.13,4.25,5.72,8.3ZM1066.71,67.55v49.1h17.23q12.8,0,20.55-7.38a24.66,24.66,0,0,0,7.88-18.58q0-23.14-27.69-23.14Z"/>
      <path class="cls-2" d="M1283,217.3q-37.89,0-61.77-24.67t-23.87-64.29q0-41.84,24.24-67.68t64.23-25.84q37.79,0,61.1,24.73t23.31,65.22q0,41.6-24.17,67.06T1283,217.3ZM1284.72,69q-20.92,0-33.23,15.69t-12.3,41.53q0,26.2,12.3,41.46T1283.73,183q20.55,0,32.61-14.83T1328.4,127q0-27.44-11.69-42.69T1284.72,69Z"/>
      <path class="cls-2" d="M1410.8,207.46V168.08a75.79,75.79,0,0,0,23.26,13.48,74.84,74.84,0,0,0,25.35,4.49,55.74,55.74,0,0,0,13.1-1.36,30.62,30.62,0,0,0,9.35-3.75,16.34,16.34,0,0,0,5.6-5.66,14.11,14.11,0,0,0,1.85-7.07,15.27,15.27,0,0,0-3-9.23,31.72,31.72,0,0,0-8.06-7.51,83.19,83.19,0,0,0-12.12-6.64q-7-3.21-15.13-6.53-20.67-8.61-30.82-21t-10.16-30q0-13.78,5.54-23.69a47.13,47.13,0,0,1,15.07-16.3,67.72,67.72,0,0,1,22.09-9.41,113.52,113.52,0,0,1,26.58-3,160.68,160.68,0,0,1,24.42,1.66,96,96,0,0,1,19.63,5.11V78.38a59.22,59.22,0,0,0-9.66-5.41A76.77,76.77,0,0,0,1503,69.09a84.18,84.18,0,0,0-11-2.28,78.29,78.29,0,0,0-10.4-.73,54.26,54.26,0,0,0-12.3,1.29A31.46,31.46,0,0,0,1459.9,71a18,18,0,0,0-5.91,5.6,13.29,13.29,0,0,0-2.09,7.32,13.94,13.94,0,0,0,2.34,7.93,26.62,26.62,0,0,0,6.64,6.65,70.73,70.73,0,0,0,10.46,6.15q6.15,3,13.91,6.22a155.2,155.2,0,0,1,19,9.41,67.5,67.5,0,0,1,14.45,11.26,43.78,43.78,0,0,1,9.23,14.33,50.55,50.55,0,0,1,3.2,18.77q0,14.76-5.6,24.79a45.34,45.34,0,0,1-15.19,16.24,65.7,65.7,0,0,1-22.34,8.92,128.68,128.68,0,0,1-26.88,2.71,149.64,149.64,0,0,1-27.63-2.46A83.49,83.49,0,0,1,1410.8,207.46Z"/>
      <path class="cls-2" d="M1571.46,207.46V168.08a75.79,75.79,0,0,0,23.26,13.48,74.88,74.88,0,0,0,25.35,4.49,55.74,55.74,0,0,0,13.1-1.36,30.62,30.62,0,0,0,9.35-3.75,16.25,16.25,0,0,0,5.6-5.66,14.11,14.11,0,0,0,1.85-7.07,15.33,15.33,0,0,0-3-9.23,31.89,31.89,0,0,0-8.06-7.51,84.26,84.26,0,0,0-12.12-6.64q-7-3.21-15.14-6.53-20.67-8.61-30.82-21t-10.15-30q0-13.78,5.53-23.69a47.07,47.07,0,0,1,15.08-16.3,67.67,67.67,0,0,1,22.08-9.41,113.52,113.52,0,0,1,26.58-3,160.91,160.91,0,0,1,24.43,1.66,96.09,96.09,0,0,1,19.62,5.11V78.38a59.22,59.22,0,0,0-9.66-5.41,76.64,76.64,0,0,0-10.76-3.88,84.32,84.32,0,0,0-11-2.28,78.15,78.15,0,0,0-10.39-.73,54.29,54.29,0,0,0-12.31,1.29,31.46,31.46,0,0,0-9.35,3.63,18.11,18.11,0,0,0-5.91,5.6,13.29,13.29,0,0,0-2.09,7.32,13.94,13.94,0,0,0,2.34,7.93,26.79,26.79,0,0,0,6.64,6.65,71.26,71.26,0,0,0,10.46,6.15q6.15,3,13.91,6.22a155.2,155.2,0,0,1,19,9.41,67.32,67.32,0,0,1,14.46,11.26,43.92,43.92,0,0,1,9.22,14.33,50.55,50.55,0,0,1,3.2,18.77q0,14.76-5.59,24.79a45.45,45.45,0,0,1-15.2,16.24,65.65,65.65,0,0,1-22.33,8.92,128.77,128.77,0,0,1-26.89,2.71,149.46,149.46,0,0,1-27.62-2.46A83.45,83.45,0,0,1,1571.46,207.46Z"/>
      <path class="cls-2" d="M1846.07,214.22H1740.25V37.78H1842V70.14h-62v39.25h57.71v32.24H1780V182h66.08Z"/>
      <path class="cls-2" d="M2052.5,214.22h-40.11l-72.72-110.86a159.35,159.35,0,0,1-8.86-14.64h-.49q1,9.34,1,28.54v97h-37.53V37.78h42.82l70,107.42q4.8,7.26,8.86,14.39h.49q-1-6.15-1-24.24V37.78h37.53Z"/>
    </g>
  </g>
</svg>
