<svg id="Layer_1" data-name="Layer 1" xmlns="http://www.w3.org/2000/svg" width="111.9" height="431" viewBox="0 0 111.9 431">
  <defs>
    <style>
      .cls-1 {
        fill: #0fc669;
        opacity: 0.6;
      }

      .cls-1, .cls-2 {
        isolation: isolate;
      }

      .cls-3 {
        fill: #ff0;
      }
    </style>
  </defs>
  <path id="Path_9-2" data-name="Path 9-2" class="cls-1" d="M0,431V0C54.14.05,25.05,0,56,0s56,20.91,56,46.7V384.3C111.9,410.09,86.85,431,56,431S52.46,430.67,0,431Z"/>
  <g id="OM_MIG-2" data-name="OM MIG-2" class="cls-2">
    <g class="cls-2">
      <path class="cls-3" d="M27.78,95.19q0-10.08,6.56-16.42t17.09-6.35q11.13,0,18,6.45T76.3,95.94q0,10.05-6.58,16.25t-17.34,6.2q-11.06,0-17.83-6.43T27.78,95.19Zm39.42.46A10.63,10.63,0,0,0,63,86.82q-4.17-3.28-11-3.28T41,86.82a10.46,10.46,0,0,0-4.06,8.57,10.59,10.59,0,0,0,3.94,8.67q3.94,3.19,10.95,3.2,7.29,0,11.35-3.11A10.12,10.12,0,0,0,67.2,95.65Z"/>
      <path class="cls-3" d="M28.6,184.79V174.35H56.67q4.55,0,10,.39v-.26A49.26,49.26,0,0,1,60.5,173L28.6,162v-8.64l31.57-11.19a64.17,64.17,0,0,1,6.54-1.47v-.29q-6.93.42-12.17.42H28.6v-9.52H75.51V146.8l-27.8,9.59A39.89,39.89,0,0,1,41,158.06v.19a69.34,69.34,0,0,1,6.77,1.87l27.74,9.58v15.09Z"/>
      <path class="cls-3" d="M28.6,277.71V267.27H56.67q4.55,0,10,.4v-.27a47.53,47.53,0,0,1-6.21-1.47l-31.9-11V246.3l31.57-11.19a64.17,64.17,0,0,1,6.54-1.47v-.29q-6.93.42-12.17.42H28.6v-9.52H75.51v15.48l-27.8,9.58A39,39,0,0,1,41,251v.2A69.54,69.54,0,0,1,47.77,253l27.74,9.59v15.08Z"/>
      <path class="cls-3" d="M28.6,304.1V293.53H75.51V304.1Z"/>
      <path class="cls-3" d="M31.74,358.43q-4-6.87-4-17.08,0-11.31,6.27-17.84T51.3,317q11.07,0,18,7.13t7,19a38.66,38.66,0,0,1-2.06,13.15H64.32A26.08,26.08,0,0,0,67.47,343a14.29,14.29,0,0,0-4.27-10.72q-4.28-4.14-11.4-4.14t-11.19,3.72q-4,3.71-4,10a14,14,0,0,0,1.08,6h9.16v-9.39h8.44v20Z"/>
    </g>
  </g>
</svg>
