<svg id="Layer_1" data-name="Layer 1" xmlns="http://www.w3.org/2000/svg" width="900.11" height="452.13" viewBox="0 0 900.11 452.13">
  <defs>
    <style>
      .cls-1 {
        opacity: 0.96;
      }

      .cls-1, .cls-2 {
        isolation: isolate;
      }

      .cls-3 {
        fill: #ff0;
      }
    </style>
  </defs>
  <g id="JONAS_ROSSEN-2" data-name="JONAS ROSSEN-2" class="cls-1">
    <g class="cls-2">
      <path class="cls-3" d="M91.53,140.78q0,34.59-16,53T29.07,212.13A66,66,0,0,1,4,207.44V171.05a36.09,36.09,0,0,0,22.35,7.56q26.54,0,26.54-39.39V36.88H91.53Z"/>
      <path class="cls-3" d="M221,212.13q-37,0-60.3-24.09t-23.3-62.76q0-40.83,23.66-66.06T223.74,34q36.87,0,59.64,24.15t22.76,63.66q0,40.61-23.6,65.46T221,212.13Zm1.68-144.74q-20.41,0-32.43,15.31t-12,40.54q0,25.59,12,40.48t31.47,14.89q20.06,0,31.83-14.47T265.3,124q0-26.79-11.41-41.68T222.66,67.39Z"/>
      <path class="cls-3" d="M508.62,209.12H469.46l-71-108.22a154.36,154.36,0,0,1-8.65-14.3h-.48q1,9.14,1,27.87v94.65H353.67V36.88h41.8l68.35,104.86q4.68,7.08,8.65,14H473q-1-6-1-23.66V36.88h36.63Z"/>
      <path class="cls-3" d="M718.43,209.12H676.15L663.9,170.81H602.64l-12.13,38.31h-42l62.7-172.24h46ZM655,141l-18.5-57.9a75.48,75.48,0,0,1-2.88-15.49h-1a65.72,65.72,0,0,1-3,15L610.93,141Z"/>
      <path class="cls-3" d="M751,202.52V164.08a73.59,73.59,0,0,0,22.7,13.15,72.78,72.78,0,0,0,24.74,4.39,55,55,0,0,0,12.8-1.32,29.94,29.94,0,0,0,9.12-3.67,15.91,15.91,0,0,0,5.47-5.52,13.81,13.81,0,0,0,1.8-6.91,15,15,0,0,0-2.88-9,31.25,31.25,0,0,0-7.87-7.33A82.27,82.27,0,0,0,805,141.38q-6.84-3.12-14.77-6.37-20.19-8.4-30.09-20.54t-9.91-29.31q0-13.44,5.4-23.12a46.07,46.07,0,0,1,14.72-15.92,65.93,65.93,0,0,1,21.56-9.18A110.32,110.32,0,0,1,817.85,34a156.31,156.31,0,0,1,23.85,1.62,94.42,94.42,0,0,1,19.15,5V76.51a57.56,57.56,0,0,0-9.43-5.28,74.63,74.63,0,0,0-10.5-3.78,80.42,80.42,0,0,0-10.76-2.23A76,76,0,0,0,820,64.5a53,53,0,0,0-12,1.26,30.85,30.85,0,0,0-9.13,3.55,17.61,17.61,0,0,0-5.76,5.46,13,13,0,0,0-2,7.15,13.67,13.67,0,0,0,2.28,7.75,26.15,26.15,0,0,0,6.48,6.48,68.55,68.55,0,0,0,10.21,6q6,2.94,13.58,6.07a150.71,150.71,0,0,1,18.56,9.19,65.69,65.69,0,0,1,14.11,11,43,43,0,0,1,9,14,49.47,49.47,0,0,1,3.12,18.32q0,14.42-5.46,24.2a44.44,44.44,0,0,1-14.84,15.86,64.29,64.29,0,0,1-21.8,8.7,125.45,125.45,0,0,1-26.24,2.65,145.17,145.17,0,0,1-27-2.41A81.36,81.36,0,0,1,751,202.52Z"/>
    </g>
    <g class="cls-2">
      <path class="cls-3" d="M139.5,410.12H101.64L78.89,372.47q-2.56-4.29-4.9-7.66a43.16,43.16,0,0,0-4.75-5.76,19,19,0,0,0-5-3.68,12.67,12.67,0,0,0-5.66-1.27H49.7v56h-33V263.78H69q53.27,0,53.27,39.8a41.33,41.33,0,0,1-2.35,14.14,39.51,39.51,0,0,1-6.63,11.68,41.91,41.91,0,0,1-10.36,9A53.49,53.49,0,0,1,89.4,344.3v.41A21,21,0,0,1,95.72,348a45,45,0,0,1,5.92,5.35A72.63,72.63,0,0,1,107.1,360c1.74,2.34,3.32,4.64,4.75,6.88ZM49.7,288.48V329.2H64q10.6,0,17-6.12a20.45,20.45,0,0,0,6.53-15.41q0-19.19-23-19.19Z"/>
      <path class="cls-3" d="M229.07,412.67q-31.42,0-51.23-20.46t-19.79-53.32q0-34.69,20.1-56.13t53.27-21.43q31.34,0,50.67,20.52t19.34,54.08q0,34.5-20.06,55.62T229.07,412.67Zm1.43-123q-17.35,0-27.55,13t-10.21,34.44q0,21.73,10.21,34.39t26.74,12.65q17,0,27-12.29t10-34.14q0-22.75-9.69-35.41T230.5,289.7Z"/>
      <path class="cls-3" d="M335.07,404.51V371.85a62.65,62.65,0,0,0,40.31,14.9,46.52,46.52,0,0,0,10.87-1.12,25.45,25.45,0,0,0,7.76-3.11,13.65,13.65,0,0,0,4.64-4.69,11.74,11.74,0,0,0,1.53-5.87,12.66,12.66,0,0,0-2.45-7.66,26.33,26.33,0,0,0-6.68-6.22A70.22,70.22,0,0,0,381,352.57q-5.82-2.65-12.56-5.41-17.15-7.14-25.56-17.45t-8.42-24.9q0-11.43,4.59-19.65a39.08,39.08,0,0,1,12.5-13.52,56.15,56.15,0,0,1,18.32-7.81,94.53,94.53,0,0,1,22.05-2.5,132.31,132.31,0,0,1,20.25,1.38A79.44,79.44,0,0,1,428.45,267v30.51a49.17,49.17,0,0,0-8-4.49,65.08,65.08,0,0,0-8.93-3.22,70.18,70.18,0,0,0-9.13-1.88,64.54,64.54,0,0,0-8.63-.62,44.59,44.59,0,0,0-10.2,1.08,25.92,25.92,0,0,0-7.76,3,15,15,0,0,0-4.9,4.64,11.05,11.05,0,0,0-1.73,6.07,11.51,11.51,0,0,0,1.94,6.58,22.31,22.31,0,0,0,5.51,5.52,59.16,59.16,0,0,0,8.67,5.1q5.1,2.5,11.53,5.15a128,128,0,0,1,15.77,7.81,55.79,55.79,0,0,1,12,9.34,36.5,36.5,0,0,1,7.66,11.88A42.24,42.24,0,0,1,434.88,369q0,12.24-4.64,20.56A37.63,37.63,0,0,1,417.63,403a54.58,54.58,0,0,1-18.52,7.4,106.86,106.86,0,0,1-22.3,2.24,124.06,124.06,0,0,1-22.91-2A69.3,69.3,0,0,1,335.07,404.51Z"/>
      <path class="cls-3" d="M468.32,404.51V371.85a62.65,62.65,0,0,0,40.31,14.9,46.58,46.58,0,0,0,10.87-1.12,25.38,25.38,0,0,0,7.75-3.11,13.59,13.59,0,0,0,4.65-4.69,11.74,11.74,0,0,0,1.53-5.87A12.73,12.73,0,0,0,531,364.3a26.22,26.22,0,0,0-6.69-6.22,69.14,69.14,0,0,0-10-5.51q-5.81-2.65-12.55-5.41-17.15-7.14-25.56-17.45t-8.42-24.9q0-11.43,4.59-19.65a39.08,39.08,0,0,1,12.5-13.52,56.06,56.06,0,0,1,18.32-7.81,94.5,94.5,0,0,1,22-2.5,132.45,132.45,0,0,1,20.26,1.38A79.61,79.61,0,0,1,561.7,267v30.51a49.17,49.17,0,0,0-8-4.49,65.56,65.56,0,0,0-8.93-3.22,70.33,70.33,0,0,0-9.14-1.88,64.4,64.4,0,0,0-8.62-.62,44.74,44.74,0,0,0-10.21,1.08,25.85,25.85,0,0,0-7.75,3,15,15,0,0,0-4.9,4.64,11,11,0,0,0-1.73,6.07,11.58,11.58,0,0,0,1.93,6.58,22.48,22.48,0,0,0,5.51,5.52,59.84,59.84,0,0,0,8.68,5.1q5.1,2.5,11.53,5.15a128,128,0,0,1,15.77,7.81,56,56,0,0,1,12,9.34,36.47,36.47,0,0,1,7.65,11.88A42,42,0,0,1,568.13,369q0,12.24-4.65,20.56A37.52,37.52,0,0,1,550.88,403a54.66,54.66,0,0,1-18.52,7.4,106.86,106.86,0,0,1-22.3,2.24,124,124,0,0,1-22.91-2A69.18,69.18,0,0,1,468.32,404.51Z"/>
      <path class="cls-3" d="M696.07,410.12H608.3V263.78h84.4v26.84H641.27v32.56h47.86v26.73H641.27v33.48h54.8Z"/>
      <path class="cls-3" d="M867.28,410.12H834L773.7,318.18A133.26,133.26,0,0,1,766.35,306h-.41q.81,7.75.82,23.68v80.41H735.63V263.78h35.51l58.07,89.09q4,6,7.35,11.94H837q-.83-5.1-.82-20.1V263.78h31.13Z"/>
    </g>
  </g>
</svg>
