<svg id="Layer_1" data-name="Layer 1" xmlns="http://www.w3.org/2000/svg" width="965.6" height="197" viewBox="0 0 965.6 197">
  <defs>
    <style>
      .cls-1 {
        fill: #10c76b;
        opacity: 0.52;
      }

      .cls-1, .cls-2 {
        isolation: isolate;
      }

      .cls-3 {
        fill: #ff0;
      }
    </style>
  </defs>
  <path id="Path_8-2" data-name="Path 8-2" class="cls-1" d="M0,0H965.6c-.12,95.32,0,44.1,0,98.5S918.76,197,861,197H104.63C46.85,197,0,152.9,0,98.5S.74,92.36,0,0Z"/>
  <g id="PORTFOLIE-2" class="cls-2">
    <g class="cls-2">
      <path class="cls-3" d="M80.64,95.06V131H57.14V26.67H94q39.42,0,39.43,33.25,0,15.72-11.32,25.43T91.85,95.06Zm0-50.35V77.23h9.24q18.77,0,18.77-16.44,0-16.08-18.77-16.08Z"/>
      <path class="cls-3" d="M204.23,132.82q-22.41,0-36.52-14.59t-14.12-38q0-24.73,14.33-40t38-15.28q22.33,0,36.12,14.63t13.79,38.56q0,24.58-14.3,39.65T204.23,132.82Zm1-87.67q-12.37,0-19.65,9.28T178.33,79q0,15.49,7.27,24.52a23.33,23.33,0,0,0,19.06,9q12.15,0,19.28-8.77t7.13-24.33q0-16.23-6.91-25.25T205.25,45.15Z"/>
      <path class="cls-3" d="M372.12,131h-27l-16.22-26.85c-1.22-2-2.38-3.85-3.5-5.45A29.92,29.92,0,0,0,322,94.59,13.41,13.41,0,0,0,318.47,92a9,9,0,0,0-4-.91H308.1V131H284.6V26.67h37.25q38,0,38,28.37a29.29,29.29,0,0,1-1.68,10.08,27.77,27.77,0,0,1-4.73,8.33,29.7,29.7,0,0,1-7.38,6.4,38,38,0,0,1-9.64,4.22v.3a14.82,14.82,0,0,1,4.51,2.36,31.68,31.68,0,0,1,4.22,3.82A51.5,51.5,0,0,1,349,95.24c1.24,1.68,2.37,3.31,3.39,4.91Zm-64-86.72v29h10.18q7.58,0,12.15-4.37a14.55,14.55,0,0,0,4.66-11q0-13.68-16.37-13.68Z"/>
      <path class="cls-3" d="M463.62,45.8H433.87V131H410.3V45.8H380.68V26.67h82.94Z"/>
      <path class="cls-3" d="M549.45,45.8H512.64V71.41h33.83V90.48H512.64V131h-23.5V26.67h60.31Z"/>
      <path class="cls-3" d="M622.18,132.82q-22.41,0-36.52-14.59t-14.11-38q0-24.73,14.33-40t38-15.28q22.33,0,36.12,14.63t13.79,38.56q0,24.58-14.3,39.65T622.18,132.82Zm1-87.67q-12.36,0-19.64,9.28T596.28,79q0,15.49,7.28,24.52a23.32,23.32,0,0,0,19.06,9q12.15,0,19.28-8.77T649,79.42q0-16.23-6.91-25.25T623.2,45.15Z"/>
      <path class="cls-3" d="M764.69,131H702.55V26.67h23.5v85.27h38.64Z"/>
      <path class="cls-3" d="M813.7,131H790.2V26.67h23.5Z"/>
      <path class="cls-3" d="M911.46,131H848.89V26.67h60.17V45.8H872.39V69h34.12V88.08H872.39v23.86h39.07Z"/>
    </g>
  </g>
</svg>
