<svg id="Layer_1" data-name="Layer 1" xmlns="http://www.w3.org/2000/svg" width="1492.59" height="265.75" viewBox="0 0 1492.59 265.75">
  <defs>
    <style>
      .cls-1 {
        isolation: isolate;
      }

      .cls-2 {
        fill: #ef0;
      }
    </style>
  </defs>
  <g id="PORTFOLIE-2" class="cls-1">
    <g class="cls-1">
      <path class="cls-2" d="M59.92,153.44v60.78H20.18V37.78H82.44q66.69,0,66.69,56.23,0,26.58-19.13,43T78.87,153.44Zm0-85.15v55H75.55q31.74,0,31.75-27.81,0-27.18-31.75-27.19Z"/>
      <path class="cls-2" d="M268.94,217.3q-37.89,0-61.77-24.67T183.3,128.34q0-41.84,24.24-67.68t64.23-25.84q37.78,0,61.1,24.73t23.31,65.22q0,41.6-24.18,67.06T268.94,217.3ZM270.67,69q-20.92,0-33.23,15.69t-12.3,41.53q0,26.2,12.3,41.46T269.68,183q20.55,0,32.61-14.83T314.35,127q0-27.44-11.69-42.69T270.67,69Z"/>
      <path class="cls-2" d="M552.9,214.22H507.25l-27.44-45.4q-3.07-5.16-5.91-9.23a51.27,51.27,0,0,0-5.72-7,22.87,22.87,0,0,0-6-4.43,15.38,15.38,0,0,0-6.83-1.54h-10.7v67.55H404.87V37.78h63q64.23,0,64.23,48a49.63,49.63,0,0,1-2.83,17,47.22,47.22,0,0,1-8,14.08,50.52,50.52,0,0,1-12.48,10.83,64.31,64.31,0,0,1-16.31,7.14v.49a25.13,25.13,0,0,1,7.63,4,55.29,55.29,0,0,1,7.14,6.46,90.93,90.93,0,0,1,6.58,7.94q3.13,4.25,5.72,8.3ZM444.62,67.55v49.1h17.22q12.8,0,20.55-7.38a24.66,24.66,0,0,0,7.88-18.58q0-23.14-27.69-23.14Z"/>
      <path class="cls-2" d="M707.65,70.14H657.33V214.22H617.46V70.14H567.38V37.78H707.65Z"/>
      <path class="cls-2" d="M852.81,70.14H790.55v43.31h57.22v32.24H790.55v68.53H750.8V37.78h102Z"/>
      <path class="cls-2" d="M975.82,217.3q-37.91,0-61.77-24.67t-23.87-64.29q0-41.84,24.24-67.68t64.23-25.84q37.77,0,61.09,24.73t23.32,65.22q0,41.6-24.18,67.06T975.82,217.3ZM977.54,69q-20.91,0-33.22,15.69T932,126.25q0,26.2,12.3,41.46T976.56,183q20.55,0,32.61-14.83T1021.22,127q0-27.44-11.68-42.69T977.54,69Z"/>
      <path class="cls-2" d="M1216.83,214.22H1111.75V37.78h39.74V182h65.34Z"/>
      <path class="cls-2" d="M1299.73,214.22H1260V37.78h39.75Z"/>
      <path class="cls-2" d="M1465.07,214.22H1359.25V37.78H1461V70.14h-62v39.25h57.71v32.24H1399V182h66.08Z"/>
    </g>
  </g>
</svg>
